<?xml version="1.0" encoding="UTF-8" standalone="no"?><svg xmlns="http://www.w3.org/2000/svg" xmlns:xlink="http://www.w3.org/1999/xlink" clip-rule="evenodd" fill="#000000" fill-rule="evenodd" height="5.6" image-rendering="optimizeQuality" preserveAspectRatio="xMidYMid meet" shape-rendering="geometricPrecision" text-rendering="geometricPrecision" version="1" viewBox="0.0 -0.0 5.1 5.6" width="5.1" zoomAndPan="magnify"><g id="change1_1"><path d="M1.593 4.948l-1.526 0.653 0.406 -1.545c-0.307,-0.433 -0.473,-0.95 -0.473,-1.486 0,-1.419 1.151,-2.57 2.57,-2.57 1.419,0 2.57,1.151 2.57,2.57 0,1.419 -1.151,2.57 -2.57,2.57 -0.336,0 -0.668,-0.065 -0.977,-0.192zm-1.325 0.421l1.342 -0.575 0.041 0.017c0.292,0.12 0.604,0.181 0.919,0.181 1.336,0 2.419,-1.083 2.419,-2.419 0,-1.336 -1.083,-2.419 -2.419,-2.419 -1.336,0 -2.419,1.083 -2.419,2.419 0,0.502 0.154,0.989 0.445,1.398l0.028 0.04 -0.356 1.358zm2.302 -4.913c1.168,0 2.114,0.947 2.114,2.114 0,1.168 -0.947,2.114 -2.114,2.114 -0.35,0 -0.68,-0.085 -0.97,-0.235l-0.855 0.366 0.226 -0.862c-0.321,-0.371 -0.515,-0.854 -0.515,-1.383 0,-1.168 0.947,-2.114 2.114,-2.114zm0.463 2.759c-0.471,0.036 -1.03,-0.622 -1.107,-0.904 -0.087,-0.317 0.103,-0.23 0.189,-0.445 0.163,-0.411 -0.404,-0.742 -0.621,-0.465 -0.501,0.636 0.149,2.203 1.379,2.377 0.323,0.046 0.974,-0 0.944,-0.401 -0.021,-0.29 -0.459,-0.652 -0.783,-0.162z" fill="#74a2a7" fill-rule="nonzero"/></g></svg>