<?xml version="1.0" encoding="UTF-8" standalone="no"?><svg xmlns="http://www.w3.org/2000/svg" xmlns:xlink="http://www.w3.org/1999/xlink" data-name="Layer 1" fill="#283039" height="90.2" preserveAspectRatio="xMidYMid meet" version="1" viewBox="14.9 -0.7 61.5 90.2" width="61.5" zoomAndPan="magnify"><g id="change1_1"><path d="M45.64,42A12.87,12.87,0,1,1,58.51,29.1,12.89,12.89,0,0,1,45.64,42Zm0-22.74a9.87,9.87,0,1,0,9.87,9.87A9.89,9.89,0,0,0,45.64,19.23Z"/></g><g id="change1_2"><path d="M45.63,74.39h0a1.5,1.5,0,0,1-1.08-.46C43.43,72.77,17,45.16,17,29.75a28.63,28.63,0,1,1,57.25,0c0,15.41-26.42,43-27.55,44.18A1.47,1.47,0,0,1,45.63,74.39Zm0-70.27A25.65,25.65,0,0,0,20,29.75c0,12.55,20.62,35.56,25.62,41,5-5.39,25.63-28.4,25.63-40.95A25.66,25.66,0,0,0,45.63,4.12Z"/></g><g id="change1_3"><path d="M45.63,89.51C28.4,89.51,14.9,83,14.9,74.77c0-4.85,4.58-9.22,12.56-12a1.5,1.5,0,0,1,1,2.84c-6.6,2.27-10.54,5.69-10.54,9.13,0,5.67,11.14,11.74,27.73,11.74s27.74-6.07,27.74-11.74c0-3.42-3.9-6.82-10.43-9.09a1.5,1.5,0,1,1,1-2.84c7.91,2.75,12.45,7.1,12.45,11.93C76.37,83,62.87,89.51,45.63,89.51Z"/></g></svg>